<svg width="96" height="32" viewBox="0 0 96 32" fill="none" xmlns="http://www.w3.org/2000/svg">
<g clip-path="url(#clip0_1835_6169)">
<path d="M88.3764 0.000104H7.8963C7.60294 0.000104 7.3131 0.000104 7.02051 0.001704C6.77559 0.003304 6.53263 0.007952 6.28535 0.011864C5.74817 0.0181854 5.21224 0.065445 4.68223 0.153232C4.15297 0.24293 3.64029 0.412037 3.16153 0.654832C2.68335 0.899681 2.24643 1.21784 1.86661 1.59776C1.4848 1.97661 1.16653 2.41452 0.924035 2.89463C0.680875 3.37379 0.512267 3.88725 0.424035 4.41729C0.334963 4.94665 0.287033 5.48212 0.280675 6.01889C0.273251 6.26417 0.272467 6.51026 0.268555 6.75558V25.247C0.272467 25.4954 0.273251 25.736 0.280675 25.9845C0.287035 26.5212 0.334965 27.0567 0.424035 27.586C0.512023 28.1164 0.680641 28.6301 0.924035 29.1095C1.16642 29.588 1.48473 30.0242 1.86661 30.4009C2.24499 30.7825 2.6822 31.1009 3.16153 31.3439C3.64029 31.5873 4.15292 31.7574 4.68223 31.8485C5.21233 31.9356 5.7482 31.9829 6.28535 31.9899C6.53263 31.9954 6.77559 31.9985 7.02051 31.9985C7.31309 32.0001 7.60295 32.0001 7.8963 32.0001H88.3764C88.6639 32.0001 88.9561 32.0001 89.2436 31.9985C89.4873 31.9985 89.7373 31.9954 89.9811 31.9899C90.5172 31.9832 91.0521 31.936 91.5811 31.8485C92.1121 31.7568 92.6266 31.5867 93.1077 31.3439C93.5865 31.1007 94.0234 30.7824 94.4014 30.4009C94.7823 30.0227 95.1013 29.5869 95.3467 29.1095C95.5883 28.6298 95.7553 28.1161 95.842 27.586C95.9312 27.0566 95.9808 26.5213 95.9904 25.9845C95.9936 25.736 95.9936 25.4954 95.9936 25.247C95.9998 24.9563 95.9998 24.6673 95.9998 24.3719V7.62901C95.9998 7.33604 95.9998 7.04541 95.9936 6.75558C95.9936 6.51026 95.9936 6.26417 95.9904 6.01886C95.9808 5.48204 95.9312 4.94669 95.842 4.41726C95.755 3.88753 95.588 3.37411 95.3467 2.8946C94.8529 1.93226 94.0698 1.14892 93.1077 0.65476C92.6266 0.412558 92.1121 0.243496 91.5811 0.15316C91.0522 0.0649862 90.5173 0.0177102 89.9811 0.011752C89.7373 0.007848 89.4873 0.00316 89.2436 0.0016C88.9561 0 88.6639 0.000104 88.3764 0.000104Z" fill="#A6A6A6"/>
<path d="M7.02425 31.2992C6.78051 31.2992 6.54265 31.2961 6.30082 31.2907C5.79985 31.2841 5.30004 31.2405 4.80551 31.1602C4.34438 31.0808 3.89767 30.933 3.48012 30.7219C3.06639 30.5124 2.68904 30.2378 2.36252 29.9086C2.03127 29.5832 1.75549 29.2058 1.54611 28.7914C1.33442 28.3743 1.18792 27.9271 1.11171 27.4656C1.02941 26.9697 0.98488 26.4683 0.978509 25.9656C0.973437 25.7969 0.966797 25.2351 0.966797 25.2351V6.75469C0.966797 6.75469 0.973869 6.20156 0.978549 6.03906C0.98465 5.5372 1.02892 5.03654 1.11097 4.5414C1.18732 4.07862 1.33394 3.63022 1.54574 3.21172C1.75435 2.79757 2.0286 2.41991 2.35785 2.09336C2.68674 1.76372 3.06529 1.4877 3.47973 1.27539C3.89632 1.06489 4.34219 0.918205 4.80238 0.840235C5.29854 0.759088 5.80008 0.715216 6.30279 0.708987L7.02464 0.699219H89.2395L89.97 0.709379C90.4681 0.715298 90.9651 0.758779 91.4567 0.839451C91.9215 0.918399 92.3721 1.06611 92.7934 1.27773C93.6237 1.70561 94.2992 2.38255 94.7254 3.21368C94.9338 3.62928 95.0782 4.07402 95.1536 4.53281C95.2366 5.03201 95.2831 5.53661 95.2926 6.04258C95.2949 6.26914 95.2949 6.5125 95.2949 6.75469C95.3012 7.05469 95.3012 7.34023 95.3012 7.62812V24.3711C95.3012 24.6617 95.3012 24.9453 95.2949 25.2312C95.2949 25.4914 95.2949 25.7297 95.2918 25.975C95.2825 26.4719 95.2368 26.9675 95.1551 27.4578C95.0804 27.9226 94.9347 28.3732 94.7231 28.7938C94.5122 29.2037 94.238 29.5778 93.9106 29.9023C93.5838 30.2334 93.2058 30.5096 92.7911 30.7203C92.3709 30.9331 91.9211 31.0814 91.4567 31.1602C90.9622 31.2409 90.4623 31.2846 89.9613 31.2907C89.727 31.2961 89.4817 31.2992 89.2434 31.2992L88.3762 31.3008L7.02425 31.2992Z" fill="black"/>
<path d="M20.0839 16.2418C20.0925 15.5741 20.2699 14.9194 20.5995 14.3386C20.9291 13.7579 21.4003 13.2699 21.9692 12.9202C21.6078 12.4041 21.131 11.9793 20.5768 11.6797C20.0225 11.38 19.406 11.2137 18.7763 11.194C17.4329 11.053 16.1305 11.9979 15.4459 11.9979C14.7481 11.9979 13.6941 11.208 12.5591 11.2314C11.825 11.2551 11.1095 11.4686 10.4824 11.851C9.85532 12.2335 9.33798 12.7718 8.98081 13.4137C7.43361 16.0924 8.58768 20.0293 10.0698 22.1945C10.8113 23.2548 11.6779 24.4392 12.8119 24.3972C13.9215 24.3512 14.336 23.6896 15.6754 23.6896C17.0024 23.6896 17.3912 24.3972 18.5482 24.3705C19.7389 24.3512 20.4891 23.3055 21.2046 22.2352C21.7374 21.4797 22.1474 20.6447 22.4193 19.7612C21.7276 19.4686 21.1372 18.9788 20.7219 18.353C20.3066 17.7272 20.0848 16.9929 20.0839 16.2418Z" fill="white"/>
<path d="M17.899 9.76906C18.5482 8.98969 18.8681 7.98795 18.7906 6.97656C17.7988 7.08074 16.8825 7.55479 16.2246 8.30425C15.9028 8.67038 15.6564 9.09633 15.4994 9.55775C15.3425 10.0192 15.2779 10.507 15.3096 10.9934C15.8057 10.9985 16.2965 10.8909 16.745 10.6789C17.1936 10.4668 17.5881 10.1557 17.899 9.76906Z" fill="white"/>
<path d="M34.1105 21.7121H30.3238L29.4145 24.3973H27.8105L31.3973 14.4629H33.0637L36.6504 24.3973H35.0191L34.1105 21.7121ZM30.716 20.4731H33.7176L32.2379 16.1153H32.1965L30.716 20.4731Z" fill="white"/>
<path d="M44.3969 20.7752C44.3969 23.026 43.1922 24.472 41.3742 24.472C40.9137 24.4961 40.4557 24.39 40.0527 24.1659C39.6497 23.9418 39.3179 23.6088 39.0953 23.2048H39.0609V26.7923H37.5742V17.1533H39.0133V18.358H39.0406C39.2734 17.956 39.6108 17.6247 40.0169 17.3992C40.423 17.1737 40.8826 17.0625 41.3469 17.0775C43.1851 17.0775 44.3969 18.5306 44.3969 20.7752ZM42.8688 20.7752C42.8688 19.3088 42.111 18.3447 40.9547 18.3447C39.8188 18.3447 39.0547 19.3291 39.0547 20.7752C39.0547 22.2345 39.8188 23.2119 40.9547 23.2119C42.111 23.2119 42.8688 22.2549 42.8688 20.7752Z" fill="white"/>
<path d="M52.3686 20.7752C52.3686 23.0259 51.1639 24.472 49.3459 24.472C48.8854 24.4961 48.4274 24.39 48.0244 24.1659C47.6213 23.9418 47.2896 23.6087 47.067 23.2048H47.0326V26.7923H45.5459V17.1533H46.985V18.358H47.0123C47.2451 17.956 47.5824 17.6246 47.9886 17.3992C48.3947 17.1737 48.8543 17.0625 49.3186 17.0775C51.1569 17.0775 52.3686 18.5306 52.3686 20.7752ZM50.8405 20.7752C50.8405 19.3088 50.0826 18.3447 48.9264 18.3447C47.7904 18.3447 47.0264 19.3291 47.0264 20.7752C47.0264 22.2345 47.7904 23.2119 48.9264 23.2119C50.0826 23.2119 50.8405 22.2549 50.8405 20.7752Z" fill="white"/>
<path d="M57.6371 21.6289C57.7473 22.6141 58.7043 23.2609 60.0121 23.2609C61.2653 23.2609 62.1668 22.6141 62.1668 21.7258C62.1668 20.9547 61.6231 20.493 60.3356 20.1766L59.0481 19.8664C57.2239 19.4258 56.377 18.5727 56.377 17.1883C56.377 15.4742 57.8707 14.2969 59.9918 14.2969C62.091 14.2969 63.5301 15.4742 63.5785 17.1883H62.0777C61.9879 16.1969 61.1684 15.5984 59.9707 15.5984C58.7731 15.5984 57.9535 16.2039 57.9535 17.0852C57.9535 17.7875 58.477 18.2008 59.7574 18.5172L60.852 18.7859C62.8902 19.2679 63.7371 20.0867 63.7371 21.5398C63.7371 23.3984 62.2566 24.5625 59.902 24.5625C57.6988 24.5625 56.2113 23.4258 56.1152 21.6289L57.6371 21.6289Z" fill="white"/>
<path d="M66.9453 15.4395V17.1535H68.3227V18.3309H66.9453V22.3238C66.9453 22.9441 67.2211 23.2332 67.8266 23.2332C67.9901 23.2304 68.1533 23.2189 68.3156 23.1988V24.3691C68.0434 24.42 67.7667 24.443 67.4898 24.4379C66.0234 24.4379 65.4516 23.8871 65.4516 22.4824V18.3309H64.3984V17.1535H65.4515V15.4395H66.9453Z" fill="white"/>
<path d="M69.1211 20.7754C69.1211 18.4965 70.4633 17.0645 72.5563 17.0645C74.6562 17.0645 75.9922 18.4965 75.9922 20.7754C75.9922 23.0605 74.6633 24.4863 72.5563 24.4863C70.45 24.4863 69.1211 23.0605 69.1211 20.7754ZM74.4773 20.7754C74.4773 19.2121 73.7609 18.2895 72.5562 18.2895C71.3516 18.2895 70.6359 19.2191 70.6359 20.7754C70.6359 22.3449 71.3516 23.2605 72.5562 23.2605C73.7609 23.2605 74.4773 22.3449 74.4773 20.7754Z" fill="white"/>
<path d="M77.2178 17.1532H78.6357V18.386H78.6701C78.7661 18.001 78.9916 17.6607 79.3089 17.4224C79.6262 17.1841 80.0158 17.0623 80.4123 17.0774C80.5837 17.0768 80.7545 17.0954 80.9217 17.1329V18.5235C80.7054 18.4574 80.4798 18.4271 80.2537 18.4337C80.0377 18.4249 79.8224 18.463 79.6225 18.5453C79.4227 18.6276 79.243 18.7522 79.0958 18.9105C78.9486 19.0688 78.8374 19.2571 78.7699 19.4625C78.7023 19.6678 78.68 19.8853 78.7045 20.1001V24.3962H77.2178L77.2178 17.1532Z" fill="white"/>
<path d="M87.7758 22.2691C87.5758 23.584 86.2953 24.4863 84.657 24.4863C82.55 24.4863 81.2422 23.0746 81.2422 20.8098C81.2422 18.5379 82.557 17.0645 84.5945 17.0645C86.5984 17.0645 87.8586 18.441 87.8586 20.6371V21.1465H82.743V21.2363C82.7194 21.5029 82.7527 21.7714 82.8409 22.0241C82.929 22.2768 83.0699 22.5078 83.2542 22.7018C83.4385 22.8959 83.6619 23.0485 83.9097 23.1495C84.1575 23.2506 84.424 23.2977 84.6914 23.2879C85.0427 23.3208 85.3953 23.2394 85.6967 23.0559C85.998 22.8723 86.2321 22.5964 86.3641 22.2691L87.7758 22.2691ZM82.75 20.1074H86.3711C86.3844 19.8677 86.3481 19.6279 86.2644 19.4029C86.1806 19.178 86.0513 18.9727 85.8845 18.8001C85.7176 18.6275 85.5169 18.4912 85.295 18.3999C85.073 18.3085 84.8345 18.264 84.5945 18.2691C84.3524 18.2677 84.1124 18.3142 83.8884 18.406C83.6644 18.4978 83.4607 18.6331 83.2892 18.804C83.1178 18.9749 82.9818 19.178 82.8893 19.4018C82.7967 19.6255 82.7494 19.8653 82.75 20.1074Z" fill="white"/>
<path d="M30.5299 6.98589C30.8416 6.96352 31.1543 7.01061 31.4456 7.12375C31.7369 7.2369 31.9995 7.41328 32.2143 7.64018C32.4292 7.86708 32.591 8.13884 32.6882 8.43586C32.7853 8.73288 32.8153 9.04775 32.776 9.35776C32.776 10.8828 31.9518 11.7594 30.5299 11.7594H28.8057V6.98589H30.5299ZM29.5471 11.0843H30.4471C30.6698 11.0976 30.8927 11.0611 31.0995 10.9774C31.3063 10.8937 31.4919 10.7649 31.6427 10.6005C31.7935 10.436 31.9057 10.24 31.9712 10.0267C32.0367 9.81344 32.0538 9.58822 32.0213 9.36749C32.0514 9.14762 32.0326 8.9238 31.9661 8.71207C31.8996 8.50034 31.7871 8.30594 31.6367 8.14279C31.4862 7.97965 31.3015 7.8518 31.0959 7.76841C30.8902 7.68502 30.6686 7.64816 30.4471 7.66045H29.5471V11.0843Z" fill="white"/>
<path d="M33.6135 9.95504C33.5909 9.71831 33.6179 9.47945 33.693 9.2538C33.7681 9.02814 33.8895 8.82067 34.0494 8.64468C34.2094 8.46869 34.4044 8.32808 34.6218 8.23186C34.8393 8.13564 35.0745 8.08594 35.3123 8.08594C35.5501 8.08594 35.7853 8.13564 36.0028 8.23186C36.2203 8.32808 36.4153 8.46869 36.5752 8.64468C36.7352 8.82067 36.8566 9.02814 36.9317 9.2538C37.0067 9.47945 37.0338 9.71831 37.0112 9.95504C37.0342 10.192 37.0075 10.4312 36.9326 10.6572C36.8577 10.8832 36.7364 11.0911 36.5764 11.2674C36.4164 11.4438 36.2213 11.5847 36.0036 11.6811C35.7859 11.7775 35.5504 11.8273 35.3123 11.8273C35.0742 11.8273 34.8388 11.7775 34.6211 11.6811C34.4034 11.5847 34.2083 11.4438 34.0483 11.2674C33.8883 11.0911 33.7669 10.8832 33.6921 10.6572C33.6172 10.4312 33.5904 10.192 33.6135 9.95504ZM36.2799 9.95504C36.2799 9.17418 35.9291 8.71754 35.3135 8.71754C34.6955 8.71754 34.3479 9.17418 34.3479 9.95505C34.3479 10.7422 34.6956 11.1953 35.3135 11.1953C35.9291 11.1953 36.2799 10.739 36.2799 9.95504Z" fill="white"/>
<path d="M41.5275 11.7586H40.79L40.0455 9.10547H39.9893L39.2479 11.7586H38.5174L37.5244 8.15625H38.2455L38.8908 10.9051H38.944L39.6846 8.15625H40.3666L41.1072 10.9051H41.1635L41.8057 8.15625H42.5166L41.5275 11.7586Z" fill="white"/>
<path d="M43.3516 8.15707H44.0359V8.72933H44.0891C44.1792 8.52379 44.3312 8.3515 44.5239 8.23645C44.7166 8.12141 44.9404 8.06935 45.1641 8.08753C45.3393 8.07435 45.5153 8.10078 45.679 8.16486C45.8427 8.22893 45.9899 8.32902 46.1096 8.45769C46.2294 8.58637 46.3186 8.74034 46.3708 8.90819C46.4229 9.07605 46.4367 9.25349 46.4109 9.42737V11.7594H45.7V9.6059C45.7 9.02699 45.4484 8.7391 44.9227 8.7391C44.8037 8.73356 44.6849 8.75381 44.5744 8.79847C44.464 8.84314 44.3645 8.91116 44.2828 8.99786C44.2011 9.08457 44.1391 9.18792 44.1011 9.30082C44.0631 9.41373 44.0499 9.53352 44.0625 9.65199V11.7594H43.3516L43.3516 8.15707Z" fill="white"/>
<path d="M47.5439 6.75H48.2549V11.7586H47.5439V6.75Z" fill="white"/>
<path d="M49.2434 9.95511C49.2207 9.71836 49.2478 9.47949 49.3229 9.25383C49.398 9.02816 49.5194 8.82068 49.6794 8.64469C49.8394 8.4687 50.0344 8.32809 50.2519 8.23186C50.4694 8.13564 50.7046 8.08594 50.9424 8.08594C51.1802 8.08594 51.4154 8.13564 51.6329 8.23186C51.8504 8.32809 52.0454 8.4687 52.2054 8.64469C52.3653 8.82068 52.4868 9.02816 52.5619 9.25383C52.6369 9.47949 52.664 9.71836 52.6414 9.95511C52.6645 10.1921 52.6377 10.4313 52.5628 10.6573C52.4879 10.8833 52.3665 11.0912 52.2065 11.2675C52.0465 11.4438 51.8514 11.5847 51.6337 11.6811C51.416 11.7776 51.1805 11.8274 50.9424 11.8274C50.7043 11.8274 50.4688 11.7776 50.2511 11.6811C50.0334 11.5847 49.8383 11.4438 49.6783 11.2675C49.5183 11.0912 49.3969 10.8833 49.322 10.6573C49.2471 10.4313 49.2203 10.1921 49.2434 9.95511ZM51.9098 9.95511C51.9098 9.17425 51.559 8.71761 50.9434 8.71761C50.3254 8.71761 49.9778 9.17425 49.9778 9.95512C49.9778 10.7422 50.3254 11.1953 50.9434 11.1953C51.559 11.1953 51.9098 10.7391 51.9098 9.95511Z" fill="white"/>
<path d="M53.3896 10.7391C53.3896 10.0906 53.8725 9.71679 54.7295 9.66367L55.7053 9.60742V9.29648C55.7053 8.91601 55.4537 8.70117 54.9678 8.70117C54.5709 8.70117 54.2959 8.84687 54.217 9.10156H53.5287C53.6014 8.48281 54.1834 8.08594 55.0006 8.08594C55.9037 8.08594 56.4131 8.53554 56.4131 9.29648V11.7578H55.7287V11.2516H55.6725C55.5583 11.4332 55.398 11.5812 55.2079 11.6806C55.0178 11.7799 54.8047 11.8271 54.5904 11.8172C54.4392 11.8329 54.2864 11.8168 54.1417 11.7698C53.9971 11.7228 53.864 11.6461 53.7508 11.5445C53.6377 11.4429 53.5471 11.3188 53.4849 11.1801C53.4227 11.0413 53.3902 10.8911 53.3896 10.7391ZM55.7053 10.4312V10.1301L54.8256 10.1863C54.3295 10.2195 54.1045 10.3883 54.1045 10.7058C54.1045 11.0301 54.3857 11.2187 54.7725 11.2187C54.8858 11.2302 55.0003 11.2188 55.1091 11.1851C55.2179 11.1514 55.3188 11.0962 55.4058 11.0227C55.4929 10.9493 55.5642 10.859 55.6157 10.7574C55.6671 10.6558 55.6976 10.5449 55.7053 10.4312Z" fill="white"/>
<path d="M57.3477 9.95587C57.3477 8.81759 57.9328 8.0965 58.843 8.0965C59.0681 8.08612 59.2915 8.14005 59.4872 8.25196C59.6828 8.36388 59.8425 8.52916 59.9477 8.7285H60.0008V6.75H60.7117V11.7586H60.0305V11.1894H59.9742C59.8609 11.3874 59.6956 11.5507 59.4962 11.6615C59.2968 11.7722 59.0709 11.8264 58.843 11.818C57.9266 11.818 57.3477 11.0969 57.3477 9.95587ZM58.0821 9.95587C58.0821 10.7199 58.4422 11.1797 59.0446 11.1797C59.6438 11.1797 60.0141 10.7133 60.0141 9.959C60.0141 9.20822 59.6399 8.73517 59.0446 8.73517C58.4461 8.73517 58.0821 9.19806 58.0821 9.95587Z" fill="white"/>
<path d="M63.6526 9.95504C63.6299 9.71831 63.657 9.47945 63.7321 9.2538C63.8071 9.02814 63.9286 8.82067 64.0885 8.64468C64.2485 8.46869 64.4434 8.32808 64.6609 8.23186C64.8784 8.13564 65.1136 8.08594 65.3514 8.08594C65.5892 8.08594 65.8244 8.13564 66.0419 8.23186C66.2594 8.32808 66.4543 8.46869 66.6143 8.64468C66.7742 8.82067 66.8956 9.02814 66.9707 9.2538C67.0458 9.47945 67.0729 9.71831 67.0502 9.95504C67.0733 10.192 67.0465 10.4312 66.9717 10.6572C66.8968 10.8832 66.7755 11.0911 66.6155 11.2674C66.4555 11.4438 66.2604 11.5847 66.0427 11.6811C65.825 11.7775 65.5895 11.8273 65.3514 11.8273C65.1133 11.8273 64.8778 11.7775 64.6601 11.6811C64.4424 11.5847 64.2473 11.4438 64.0873 11.2674C63.9273 11.0911 63.806 10.8832 63.7311 10.6572C63.6562 10.4312 63.6295 10.192 63.6526 9.95504ZM66.319 9.95504C66.319 9.17418 65.9682 8.71754 65.3526 8.71754C64.7346 8.71754 64.387 9.17418 64.387 9.95505C64.387 10.7422 64.7346 11.1953 65.3526 11.1953C65.9682 11.1953 66.319 10.739 66.319 9.95504Z" fill="white"/>
<path d="M68.0049 8.15707H68.6893V8.72933H68.7424C68.8325 8.52379 68.9845 8.3515 69.1772 8.23645C69.3699 8.12141 69.5937 8.06935 69.8174 8.08753C69.9927 8.07435 70.1687 8.10078 70.3323 8.16486C70.496 8.22893 70.6432 8.32902 70.7629 8.45769C70.8827 8.58637 70.9719 8.74034 71.0241 8.90819C71.0763 9.07605 71.09 9.25349 71.0643 9.42737V11.7594H70.3533V9.6059C70.3533 9.02699 70.1018 8.7391 69.576 8.7391C69.457 8.73356 69.3382 8.75381 69.2277 8.79847C69.1173 8.84314 69.0178 8.91116 68.9361 8.99786C68.8544 9.08457 68.7924 9.18792 68.7544 9.30082C68.7164 9.41373 68.7032 9.53352 68.7158 9.65199V11.7594H68.0049V8.15707Z" fill="white"/>
<path d="M75.0814 7.25977V8.17305H75.8619V8.77188H75.0814V10.6242C75.0814 11.0016 75.2369 11.1668 75.5908 11.1668C75.6814 11.1665 75.7719 11.161 75.8619 11.1504V11.7426C75.7342 11.7654 75.6049 11.7776 75.4752 11.7789C74.6846 11.7789 74.3697 11.5008 74.3697 10.8062V8.77185H73.7979V8.17301H74.3697V7.25977H75.0814Z" fill="white"/>
<path d="M76.833 6.75H77.5377V8.73516H77.5939C77.6884 8.5277 77.8446 8.35443 78.0412 8.23895C78.2377 8.12347 78.4651 8.07141 78.6923 8.08985C78.8667 8.08036 79.041 8.10947 79.2028 8.1751C79.3647 8.24074 79.51 8.34128 79.6285 8.46955C79.747 8.59782 79.8357 8.75066 79.8884 8.91717C79.941 9.08367 79.9562 9.25974 79.933 9.43282V11.7586H79.2213V9.6082C79.2213 9.03281 78.9533 8.7414 78.451 8.7414C78.3288 8.73138 78.2059 8.74818 78.0909 8.79062C77.9759 8.83306 77.8715 8.90012 77.7851 8.98711C77.6987 9.0741 77.6324 9.17892 77.5907 9.29423C77.5491 9.40954 77.5331 9.53256 77.544 9.65468V11.7586H76.833L76.833 6.75Z" fill="white"/>
<path d="M84.0783 10.7852C83.9817 11.1144 83.7724 11.3992 83.487 11.5898C83.2017 11.7803 82.8584 11.8644 82.5173 11.8274C82.28 11.8337 82.0441 11.7882 81.8261 11.6942C81.6081 11.6002 81.4132 11.4598 81.2549 11.2829C81.0965 11.106 80.9786 10.8968 80.9093 10.6697C80.8399 10.4426 80.8208 10.2032 80.8533 9.96803C80.8216 9.73212 80.8411 9.49218 80.9103 9.26444C80.9795 9.0367 81.0968 8.82649 81.2543 8.64803C81.4118 8.46957 81.6058 8.32703 81.8231 8.23007C82.0405 8.1331 82.2762 8.08397 82.5142 8.086C83.5165 8.086 84.1212 8.7708 84.1212 9.902V10.1501H81.5775V10.1899C81.5663 10.3221 81.583 10.4552 81.6263 10.5806C81.6696 10.706 81.7386 10.8209 81.8289 10.9181C81.9192 11.0153 82.0289 11.0925 82.1508 11.1448C82.2727 11.1971 82.4042 11.2234 82.5368 11.2219C82.7069 11.2423 82.8792 11.2117 83.0318 11.1339C83.1844 11.0562 83.3104 10.9348 83.3939 10.7852L84.0783 10.7852ZM81.5774 9.62428H83.397C83.4059 9.50338 83.3895 9.38194 83.3487 9.26776C83.308 9.15359 83.2438 9.0492 83.1603 8.96132C83.0768 8.87343 82.9758 8.80399 82.8638 8.75745C82.7519 8.71091 82.6315 8.6883 82.5103 8.69108C82.3873 8.68953 82.2653 8.71262 82.1514 8.75897C82.0375 8.80533 81.934 8.87402 81.8471 8.96099C81.7602 9.04796 81.6915 9.15145 81.6452 9.26537C81.5989 9.37929 81.5758 9.50132 81.5774 9.62428Z" fill="white"/>
</g>
<defs>
<clipPath id="clip0_1835_6169">
<rect width="95.7313" height="32" fill="white" transform="translate(0.268555)"/>
</clipPath>
</defs>
</svg>
