<svg width="22" height="22" viewBox="0 0 22 22" fill="none" xmlns="http://www.w3.org/2000/svg">
<g clip-path="url(#clip0_1835_6150)">
<path d="M11 22C17.0751 22 22 17.0751 22 11C22 4.92487 17.0751 0 11 0C4.92487 0 0 4.92487 0 11C0 17.0751 4.92487 22 11 22Z" fill="#FF6B6B" fill-opacity="0.64"/>
<path d="M22 11H0C0 17.0751 4.92486 22 11 22C17.0751 22 22 17.0751 22 11Z" fill="#FF1F3D" fill-opacity="0.41"/>
<path d="M7.99214 17.2304C7.8919 17.2304 7.79135 17.2071 7.6988 17.1598C7.48327 17.0496 7.34766 16.828 7.34766 16.5859V5.41404C7.34766 5.172 7.48327 4.95037 7.69875 4.8402C7.91424 4.73002 8.1733 4.74983 8.36954 4.89154L16.1039 10.4775C16.2717 10.5987 16.3711 10.793 16.3711 11C16.3711 11.2069 16.2717 11.4013 16.1039 11.5225L8.36954 17.1084C8.25761 17.1893 8.12522 17.2304 7.99214 17.2304Z" fill="#F9F9F9"/>
<path d="M7.34766 11V16.5859C7.34766 16.828 7.48327 17.0496 7.69875 17.1598C7.79131 17.2071 7.8919 17.2305 7.9921 17.2305C8.12518 17.2305 8.25761 17.1893 8.36954 17.1084L16.1039 11.5225C16.2717 11.4013 16.3711 11.2069 16.3711 11H7.34766Z" fill="#E2DFF4"/>
</g>
<defs>
<clipPath id="clip0_1835_6150">
<rect width="22" height="22" fill="white"/>
</clipPath>
</defs>
</svg>
