<svg width="108" height="32" viewBox="0 0 108 32" fill="none" xmlns="http://www.w3.org/2000/svg">
<path d="M104 32H4C2.93913 32 1.92172 31.5786 1.17157 30.8284C0.421427 30.0783 0 29.0609 0 28L0 4C0 2.93913 0.421427 1.92172 1.17157 1.17157C1.92172 0.421427 2.93913 0 4 0L104 0C105.061 0 106.078 0.421427 106.828 1.17157C107.579 1.92172 108 2.93913 108 4V28C108 29.0609 107.579 30.0783 106.828 30.8284C106.078 31.5786 105.061 32 104 32Z" fill="black"/>
<path d="M104 0.64C104.891 0.64 105.746 0.993999 106.376 1.62412C107.006 2.25424 107.36 3.10887 107.36 4V28C107.36 28.8911 107.006 29.7458 106.376 30.3759C105.746 31.006 104.891 31.36 104 31.36H4C3.10887 31.36 2.25424 31.006 1.62412 30.3759C0.993999 29.7458 0.64 28.8911 0.64 28V4C0.64 3.10887 0.993999 2.25424 1.62412 1.62412C2.25424 0.993999 3.10887 0.64 4 0.64H104ZM104 0H4C2.93913 0 1.92172 0.421427 1.17157 1.17157C0.421427 1.92172 0 2.93913 0 4L0 28C0 29.0609 0.421427 30.0783 1.17157 30.8284C1.92172 31.5786 2.93913 32 4 32H104C105.061 32 106.078 31.5786 106.828 30.8284C107.579 30.0783 108 29.0609 108 28V4C108 2.93913 107.579 1.92172 106.828 1.17157C106.078 0.421427 105.061 0 104 0Z" fill="#A7A6A6"/>
<path d="M37.9359 8.19198C37.949 8.48536 37.9026 8.77836 37.7995 9.05334C37.6964 9.32832 37.5387 9.57958 37.3359 9.79198C37.1086 10.0266 36.8344 10.2106 36.5311 10.3319C36.2278 10.4532 35.9023 10.5092 35.5759 10.496C35.2476 10.5033 34.9213 10.4432 34.6172 10.3193C34.3131 10.1955 34.0377 10.0106 33.8079 9.77598C33.5709 9.54597 33.3839 9.26952 33.2586 8.96393C33.1333 8.65833 33.0725 8.33017 33.0799 7.99998C33.0714 7.66845 33.1317 7.33877 33.257 7.03171C33.3823 6.72466 33.5699 6.44691 33.8079 6.21598C34.1643 5.86773 34.6157 5.63257 35.1053 5.54005C35.5949 5.44753 36.101 5.50178 36.5599 5.69598C36.8498 5.81193 37.1077 5.99574 37.3119 6.23198L36.8879 6.64798C36.7282 6.45806 36.5266 6.30787 36.2989 6.20929C36.0712 6.11071 35.8236 6.06644 35.5759 6.07998C35.326 6.07875 35.0784 6.128 34.8481 6.22477C34.6177 6.32154 34.4092 6.46384 34.2351 6.64313C34.0611 6.82242 33.925 7.03502 33.8351 7.26818C33.7452 7.50133 33.7033 7.75024 33.7119 7.99998C33.7033 8.24972 33.7452 8.49863 33.8351 8.73178C33.925 8.96494 34.0611 9.17753 34.2351 9.35683C34.4092 9.53612 34.6177 9.67842 34.8481 9.77519C35.0784 9.87196 35.326 9.92121 35.5759 9.91998C35.8244 9.92518 36.0714 9.88042 36.3023 9.78835C36.5331 9.69627 36.7432 9.55876 36.9199 9.38398C37.1643 9.11606 37.3059 8.77033 37.3199 8.40798H35.5759V7.83198H37.9039C37.9111 7.95187 37.9111 8.07209 37.9039 8.19198" fill="white"/>
<path d="M37.9356 8.19208H37.8556C37.8712 8.47525 37.8282 8.7586 37.729 9.02432C37.6299 9.29003 37.4769 9.53237 37.2796 9.73608C37.0599 9.9637 36.7944 10.142 36.5007 10.2593C36.2069 10.3765 35.8916 10.4299 35.5756 10.4161C35.258 10.4217 34.9426 10.3629 34.6483 10.2433C34.3541 10.1237 34.0871 9.94568 33.8636 9.72008C33.6336 9.49769 33.4523 9.23 33.3311 8.93394C33.2099 8.63787 33.1515 8.31989 33.1596 8.00008C33.1504 7.67895 33.2083 7.35943 33.3295 7.06191C33.4507 6.76439 33.6326 6.49539 33.8636 6.27208C34.0892 6.05081 34.357 5.87727 34.6512 5.76181C34.9453 5.64635 35.2597 5.59135 35.5756 5.60008C35.9027 5.59854 36.2266 5.66388 36.5276 5.79208C36.8047 5.9034 37.0514 6.07888 37.2476 6.30408L37.3116 6.25608L37.2556 6.20008L36.7996 6.59208L36.8556 6.64808L36.9196 6.60008C36.7509 6.40212 36.5393 6.24519 36.3008 6.14123C36.0624 6.03727 35.8034 5.989 35.5436 6.00008C35.2835 5.99998 35.026 6.05205 34.7865 6.15323C34.5469 6.25441 34.33 6.40263 34.1488 6.58912C33.9675 6.77561 33.8255 6.99658 33.7312 7.23894C33.6368 7.4813 33.5921 7.74012 33.5996 8.00008C33.5921 8.26005 33.6368 8.51887 33.7312 8.76123C33.8255 9.00359 33.9675 9.22455 34.1488 9.41105C34.33 9.59754 34.5469 9.74576 34.7865 9.84694C35.026 9.94812 35.2835 10.0002 35.5436 10.0001C35.8025 10.0051 36.0598 9.95817 36.3003 9.86198C36.5408 9.76579 36.7595 9.62233 36.9436 9.44008C37.2024 9.16016 37.3527 8.79703 37.3676 8.41608V8.32808H35.6556V7.91208H37.9036V7.83208H37.8236C37.8351 7.94646 37.8351 8.06171 37.8236 8.17608H37.9836C37.9813 8.04982 37.9679 7.924 37.9436 7.80008V7.75208H35.4956V8.48808H37.3196V8.40808H37.2396C37.2236 8.75272 37.0878 9.08096 36.8556 9.33608C36.5996 9.58889 36.2737 9.75919 35.92 9.82501C35.5664 9.89084 35.2011 9.84916 34.8713 9.70537C34.5415 9.56158 34.2624 9.32226 34.0699 9.0183C33.8775 8.71434 33.7805 8.35968 33.7916 8.00008C33.7818 7.75411 33.8238 7.50883 33.9147 7.28008C34.0057 7.05133 34.1436 6.84421 34.3196 6.67208C34.4841 6.50718 34.68 6.37692 34.8957 6.28898C35.1115 6.20104 35.3426 6.15721 35.5756 6.16008C35.8073 6.15303 36.0377 6.19827 36.2496 6.29244C36.4615 6.38662 36.6495 6.52732 36.7996 6.70408L36.8556 6.76808L37.3436 6.28808L37.3996 6.23208L37.3516 6.17608C37.1316 5.93217 36.8577 5.74312 36.5516 5.62408C36.0783 5.42242 35.5558 5.36571 35.0502 5.46112C34.5447 5.55653 34.0788 5.79978 33.7116 6.16008C33.4669 6.39892 33.2739 6.68548 33.1445 7.002C33.0151 7.31851 32.9522 7.65823 32.9596 8.00008C32.953 8.34302 33.0163 8.68371 33.1455 9.00141C33.2748 9.31911 33.4674 9.60718 33.7116 9.84808C33.9496 10.0883 34.2341 10.2774 34.5477 10.404C34.8614 10.5305 35.1975 10.5918 35.5356 10.5841C35.8743 10.5972 36.212 10.5384 36.5264 10.4115C36.8408 10.2847 37.1248 10.0926 37.3596 9.84808L37.2956 9.80008L37.3516 9.85608C37.5628 9.63542 37.7271 9.37415 37.8343 9.08812C37.9416 8.80208 37.9896 8.49724 37.9756 8.19208H37.8956" fill="white"/>
<path d="M41.6244 6.18361H39.4404V7.71161H41.4084V8.28761H39.4404V9.80761H41.6244V10.3996H38.8164V5.59961H41.6244V6.18361Z" fill="white"/>
<path d="M41.6243 6.18353V6.10353H39.3603V7.79153H41.3283V8.20753H39.3603V9.88753H41.5443V10.3195H38.9043V5.67953H41.5443V6.18353H41.6243V6.10353V6.18353H41.7043V5.51953H38.7363V10.4795H41.7043V9.72753H39.5203V8.36753H41.4883V7.63153H39.5203V6.26353H41.7043V6.18353H41.6243Z" fill="white"/>
<path d="M44.2237 10.3996H43.6077V6.18361H42.2637V5.59961H45.5597V6.18361H44.2237V10.3996Z" fill="white"/>
<path d="M44.2236 10.3995V10.3195H43.6876V6.10353H42.3436V5.67953H45.4796V6.10353H44.1436V10.3995H44.2236V10.3195V10.3995H44.3036V6.26353H45.6396V5.51953H42.1836V6.26353H43.5276V10.4795H44.3036V10.3995H44.2236Z" fill="white"/>
<path d="M48.5681 5.59961H47.9521V10.3996H48.5681V5.59961Z" fill="white"/>
<path d="M47.9521 10.3995H48.0321V5.67953H48.4881V10.3195H47.9521V10.3995H48.0321H47.9521V10.4795H48.6481V5.51953H47.8721V10.4795H47.9521V10.3995Z" fill="white"/>
<path d="M51.3037 10.3996H50.6878V6.18361H49.3438V5.59961H52.6398V6.18361H51.3037V10.3996Z" fill="white"/>
<path d="M51.3037 10.3995V10.3195H50.7677V6.10353H49.4237V5.67953H52.5597V6.10353H51.2237V10.3995H51.3037V10.3195V10.3995H51.3837V6.26353H52.7197V5.51953H49.2637V6.26353H50.6077V10.4795H51.3837V10.3995H51.3037Z" fill="white"/>
<path d="M58.8883 9.7769C58.6573 10.0081 58.3829 10.1916 58.0809 10.3168C57.7789 10.4419 57.4552 10.5063 57.1283 10.5063C56.8014 10.5063 56.4777 10.4419 56.1757 10.3168C55.8737 10.1916 55.5994 10.0081 55.3683 9.7769C55.1356 9.54484 54.9531 9.26746 54.832 8.96196C54.7109 8.65647 54.6538 8.32935 54.6643 8.0009C54.6538 7.67244 54.7109 7.34533 54.832 7.03983C54.9531 6.73433 55.1356 6.45696 55.3683 6.2249C55.5944 5.98714 55.8679 5.79948 56.171 5.67408C56.4742 5.54867 56.8003 5.48831 57.1283 5.4969C57.4558 5.49172 57.7809 5.55363 58.0836 5.67883C58.3863 5.80403 58.6602 5.98987 58.8883 6.2249C59.1183 6.45889 59.2992 6.7366 59.4201 7.04164C59.541 7.34668 59.5996 7.67285 59.5923 8.0009C59.6028 8.32935 59.5457 8.65647 59.4246 8.96196C59.3035 9.26746 59.121 9.54484 58.8883 9.7769ZM55.8243 9.3769C55.9947 9.5496 56.1978 9.68673 56.4216 9.78032C56.6455 9.87392 56.8857 9.92211 57.1283 9.92211C57.3709 9.92211 57.6112 9.87392 57.835 9.78032C58.0589 9.68673 58.2619 9.5496 58.4323 9.3769C58.6095 9.19532 58.7483 8.97989 58.8404 8.74347C58.9325 8.50706 58.976 8.2545 58.9683 8.0009C58.9718 7.74502 58.9233 7.49109 58.8257 7.25455C58.728 7.01801 58.5833 6.80379 58.4003 6.6249C58.2299 6.45219 58.0269 6.31507 57.803 6.22147C57.5792 6.12788 57.3389 6.07968 57.0963 6.07968C56.8537 6.07968 56.6135 6.12788 56.3896 6.22147C56.1658 6.31507 55.9627 6.45219 55.7923 6.6249C55.6208 6.80909 55.4879 7.0257 55.4014 7.262C55.3148 7.49831 55.2764 7.74953 55.2883 8.0009C55.2806 8.2545 55.3241 8.50706 55.4162 8.74347C55.5083 8.97989 55.6471 9.19532 55.8243 9.3769Z" fill="white"/>
<path d="M58.8881 9.77509L58.8321 9.71909C58.6089 9.94404 58.3435 10.1226 58.051 10.2444C57.7586 10.3663 57.4449 10.429 57.1281 10.429C56.8112 10.429 56.4975 10.3663 56.2051 10.2444C55.9126 10.1226 55.6472 9.94404 55.4241 9.71909C55.2026 9.49162 55.0284 9.22247 54.9117 8.92723C54.795 8.63198 54.738 8.31651 54.7441 7.99909C54.738 7.68167 54.795 7.3662 54.9117 7.07096C55.0284 6.77571 55.2026 6.50656 55.4241 6.27909C55.647 6.05535 55.912 5.87782 56.2037 5.75669C56.4954 5.63555 56.8082 5.5732 57.1241 5.5732C57.4399 5.5732 57.7527 5.63555 58.0444 5.75669C58.3361 5.87782 58.6011 6.05535 58.8241 6.27909C59.0496 6.504 59.2269 6.77252 59.3452 7.06824C59.4635 7.36397 59.5203 7.68069 59.5121 7.99909C59.5181 8.31651 59.4611 8.63198 59.3444 8.92723C59.2277 9.22247 59.0535 9.49162 58.8321 9.71909L58.9441 9.83109C59.1823 9.59033 59.3695 9.304 59.4946 8.98923C59.6197 8.67446 59.6801 8.33771 59.6721 7.99909C59.6796 7.66053 59.619 7.32391 59.494 7.00921C59.3689 6.6945 59.1819 6.40813 58.9441 6.16709C58.7116 5.92068 58.4296 5.72627 58.1166 5.59666C57.8036 5.46705 57.4667 5.40517 57.1281 5.41509C56.7894 5.40517 56.4525 5.46705 56.1395 5.59666C55.8265 5.72627 55.5445 5.92068 55.3121 6.16709C55.0723 6.40675 54.8841 6.69288 54.7589 7.00791C54.6337 7.32295 54.5742 7.66024 54.5841 7.99909C54.5742 8.33794 54.6337 8.67524 54.7589 8.99027C54.8841 9.3053 55.0723 9.59143 55.3121 9.83109C55.5505 10.0696 55.8336 10.2588 56.1452 10.3879C56.4568 10.517 56.7908 10.5834 57.1281 10.5834C57.4653 10.5834 57.7993 10.517 58.1109 10.3879C58.4225 10.2588 58.7056 10.0696 58.9441 9.83109L58.8881 9.77509ZM55.8241 9.37509L55.7681 9.43109C55.9459 9.61105 56.1577 9.75393 56.3911 9.85144C56.6246 9.94895 56.8751 9.99916 57.1281 9.99916C57.3811 9.99916 57.6315 9.94895 57.865 9.85144C58.0984 9.75393 58.3102 9.61105 58.4881 9.43109C58.6731 9.24247 58.8181 9.01839 58.9143 8.7723C59.0106 8.52621 59.0561 8.26321 59.0481 7.99909C59.0551 7.73509 59.0092 7.47235 58.9131 7.22639C58.8169 6.98043 58.6724 6.75625 58.4881 6.56709C58.3102 6.38713 58.0984 6.24426 57.865 6.14675C57.6315 6.04923 57.3811 5.99902 57.1281 5.99902C56.8751 5.99902 56.6246 6.04923 56.3911 6.14675C56.1577 6.24426 55.9459 6.38713 55.7681 6.56709C55.5823 6.75559 55.4363 6.97947 55.3388 7.22546C55.2412 7.47145 55.194 7.73453 55.2001 7.99909C55.1921 8.26321 55.2375 8.52621 55.3338 8.7723C55.43 9.01839 55.575 9.24247 55.7601 9.43109L55.8721 9.31909C55.7034 9.14444 55.5717 8.93746 55.4851 8.71061C55.3985 8.48376 55.3587 8.24173 55.3681 7.99909C55.3597 7.75589 55.4008 7.51352 55.4888 7.28664C55.5768 7.05976 55.7099 6.85308 55.8801 6.67909C56.0436 6.51461 56.2381 6.38409 56.4522 6.29502C56.6664 6.20595 56.8961 6.1601 57.1281 6.1601C57.36 6.1601 57.5897 6.20595 57.8039 6.29502C58.018 6.38409 58.2125 6.51461 58.3761 6.67909C58.5462 6.85308 58.6793 7.05976 58.7673 7.28664C58.8553 7.51352 58.8964 7.75589 58.8881 7.99909C58.8995 8.24061 58.8623 8.48197 58.7784 8.70876C58.6946 8.93555 58.5659 9.14312 58.4001 9.31909C58.2391 9.4871 58.0452 9.62001 57.8304 9.7095C57.6156 9.79898 57.3847 9.8431 57.1521 9.83909C56.9197 9.84121 56.6893 9.79623 56.4748 9.70686C56.2603 9.61748 56.0662 9.48557 55.9041 9.31909L55.8241 9.37509Z" fill="white"/>
<path d="M60.4639 10.3996V5.59961H61.2079L63.5439 9.32761H63.5679L63.5439 8.40761V5.59961H64.1599V10.3996H63.5199L61.0799 6.47961H61.0479L61.0799 7.40761V10.3996H60.4639Z" fill="white"/>
<path d="M60.464 10.3995H60.536V5.67953H61.168L63.496 9.41553H63.656L63.624 8.40753V5.67953H64.08V10.3195H63.56L61.12 6.39953H60.968L61 7.40753V10.3195H60.464V10.3995H60.536H60.464V10.4795H61.16V7.40753L61.128 6.47953H61.048V6.55953H61.08V6.47953L61.008 6.52753L63.472 10.4795H64.24V5.51953H63.464V8.40753L63.488 9.33553L63.568 9.32753V9.24753H63.544V9.32753L63.616 9.28753L61.256 5.51953H60.376V10.4795H60.464V10.3995Z" fill="white"/>
<path d="M54.5119 17.4007C53.8375 17.4007 53.1783 17.6008 52.6177 17.9756C52.0571 18.3505 51.6202 18.8832 51.3625 19.5064C51.1048 20.1296 51.0378 20.8152 51.17 21.4765C51.3021 22.1378 51.6275 22.7451 52.1049 23.2214C52.5823 23.6977 53.1903 24.0216 53.8519 24.1522C54.5135 24.2828 55.199 24.2142 55.8216 23.955C56.4442 23.6958 56.9759 23.2578 57.3494 22.6963C57.7229 22.1348 57.9215 21.4751 57.9199 20.8007C57.9264 20.3518 57.8426 19.9061 57.6735 19.4901C57.5045 19.0741 57.2535 18.6964 56.9357 18.3792C56.6178 18.0621 56.2395 17.8121 55.8231 17.644C55.4067 17.4759 54.9608 17.3932 54.5119 17.4007ZM54.5119 22.8647C54.0987 22.8936 53.6865 22.7976 53.3287 22.589C52.9708 22.3805 52.684 22.0692 52.5055 21.6955C52.327 21.3218 52.265 20.903 52.3276 20.4936C52.3902 20.0843 52.5746 19.7032 52.8567 19.4C53.1387 19.0967 53.5055 18.8854 53.9093 18.7933C54.3131 18.7013 54.7352 18.7329 55.1208 18.884C55.5064 19.0351 55.8377 19.2987 56.0715 19.6405C56.3053 19.9823 56.4309 20.3866 56.4319 20.8007C56.4448 21.0631 56.405 21.3255 56.3149 21.5723C56.2248 21.819 56.0861 22.0453 55.9072 22.2377C55.7283 22.43 55.5126 22.5846 55.273 22.6923C55.0333 22.8 54.7745 22.8586 54.5119 22.8647ZM47.0559 17.4007C46.3818 17.4023 45.7234 17.6037 45.1639 17.9795C44.6043 18.3553 44.1687 18.8886 43.9123 19.5119C43.6558 20.1353 43.5899 20.8206 43.7229 21.4814C43.856 22.1422 44.182 22.7487 44.6597 23.2242C45.1375 23.6997 45.7455 24.0228 46.4069 24.1528C47.0683 24.2827 47.7533 24.2136 48.3755 23.9542C48.9976 23.6948 49.5288 23.2568 49.902 22.6954C50.2751 22.1341 50.4735 21.4748 50.4719 20.8007C50.4784 20.3511 50.3944 19.9047 50.2248 19.4882C50.0553 19.0717 49.8036 18.6936 49.4849 18.3763C49.1662 18.0591 48.7868 17.8092 48.3696 17.6416C47.9523 17.474 47.5055 17.3921 47.0559 17.4007ZM47.0559 22.8647C46.6427 22.8936 46.2305 22.7976 45.8727 22.589C45.5148 22.3805 45.228 22.0692 45.0495 21.6955C44.871 21.3218 44.809 20.903 44.8716 20.4936C44.9342 20.0843 45.1186 19.7032 45.4007 19.4C45.6827 19.0967 46.0495 18.8854 46.4533 18.7933C46.8571 18.7013 47.2792 18.7329 47.6648 18.884C48.0504 19.0351 48.3817 19.2987 48.6155 19.6405C48.8493 19.9823 48.9749 20.3866 48.9759 20.8007C48.9888 21.0631 48.949 21.3255 48.8589 21.5723C48.7688 21.819 48.6301 22.0453 48.4512 22.2377C48.2723 22.43 48.0566 22.5846 47.817 22.6923C47.5773 22.8 47.3185 22.8586 47.0559 22.8647ZM38.1919 18.4487V19.8887H41.6479C41.5937 20.567 41.3118 21.207 40.8479 21.7047C40.5012 22.0579 40.0842 22.3344 39.624 22.5163C39.1637 22.6982 38.6704 22.7815 38.1759 22.7607C37.1575 22.7607 36.1807 22.3561 35.4606 21.636C34.7405 20.9159 34.3359 19.9392 34.3359 18.9207C34.3359 17.9023 34.7405 16.9256 35.4606 16.2054C36.1807 15.4853 37.1575 15.0807 38.1759 15.0807C39.1522 15.0662 40.095 15.437 40.7999 16.1127L41.8159 15.0967C41.3391 14.6251 40.7729 14.2534 40.1507 14.0034C39.5284 13.7534 38.8624 13.6301 38.1919 13.6407C37.4807 13.613 36.7712 13.7292 36.106 13.9823C35.4408 14.2354 34.8335 14.6201 34.3205 15.1135C33.8075 15.6069 33.3994 16.1988 33.1207 16.8537C32.8419 17.5086 32.6982 18.213 32.6982 18.9247C32.6982 19.6365 32.8419 20.3409 33.1207 20.9958C33.3994 21.6506 33.8075 22.2425 34.3205 22.7359C34.8335 23.2293 35.4408 23.6141 36.106 23.8671C36.7712 24.1202 37.4807 24.2364 38.1919 24.2087C38.8762 24.2361 39.5586 24.1183 40.1942 23.8632C40.8298 23.6082 41.4043 23.2215 41.8799 22.7287C42.72 21.8058 43.1676 20.5921 43.1279 19.3447C43.1311 19.0445 43.107 18.7446 43.0559 18.4487H38.1919ZM74.4399 19.5687C74.2313 18.9549 73.8411 18.4189 73.3211 18.0318C72.8011 17.6446 72.1757 17.4246 71.5279 17.4007C71.0903 17.3999 70.6572 17.4888 70.2553 17.6619C69.8534 17.8351 69.4913 18.0889 69.1914 18.4075C68.8915 18.7262 68.6601 19.103 68.5116 19.5146C68.363 19.9263 68.3005 20.364 68.3279 20.8007C68.3171 21.2485 68.3968 21.6939 68.5622 22.1101C68.7276 22.5264 68.9754 22.905 69.2906 23.2232C69.6058 23.5414 69.982 23.7927 70.3967 23.9621C70.8114 24.1314 71.256 24.2153 71.7039 24.2087C72.2656 24.2122 72.8193 24.0758 73.3151 23.8118C73.8109 23.5479 74.2332 23.1646 74.5439 22.6967L73.3759 21.8967C73.2018 22.1839 72.9562 22.421 72.6632 22.585C72.3702 22.7491 72.0397 22.8344 71.7039 22.8327C71.3571 22.847 71.0142 22.7561 70.7201 22.5719C70.4259 22.3878 70.1944 22.1189 70.0559 21.8007L74.6079 19.9207L74.4399 19.5687ZM69.7999 20.7047C69.7837 20.4573 69.817 20.2091 69.8979 19.9747C69.9788 19.7403 70.1057 19.5244 70.2711 19.3396C70.4365 19.1548 70.6371 19.0049 70.8611 18.8987C71.0852 18.7924 71.3282 18.7319 71.5759 18.7207C71.8344 18.7005 72.0931 18.7583 72.3184 18.8867C72.5438 19.015 72.7254 19.208 72.8399 19.4407L69.7999 20.7047ZM66.1039 24.0007H67.5999V14.0007H66.1039V24.0007ZM63.6559 18.1607H63.5999C63.3727 17.9135 63.0953 17.7177 62.7862 17.5866C62.4771 17.4556 62.1435 17.3922 61.8079 17.4007C60.9336 17.4431 60.1092 17.8203 59.5055 18.454C58.9017 19.0877 58.565 19.9294 58.565 20.8047C58.565 21.68 58.9017 22.5217 59.5055 23.1555C60.1092 23.7892 60.9336 24.1663 61.8079 24.2087C62.1471 24.2155 62.4835 24.1473 62.7933 24.0091C63.1031 23.8708 63.3785 23.6658 63.5999 23.4087H63.6559V23.8967C63.6559 25.2007 62.9599 25.8967 61.8399 25.8967C61.4657 25.8885 61.1025 25.7693 60.7962 25.5542C60.49 25.3391 60.2546 25.0379 60.1199 24.6887L58.8239 25.2247C59.0635 25.8265 59.4801 26.3414 60.0186 26.7014C60.5571 27.0614 61.1922 27.2494 61.8399 27.2407C63.5919 27.2407 65.0399 26.2087 65.0399 23.6967V17.6007H63.6559V18.1607ZM61.9439 22.8647C61.4197 22.832 60.9277 22.6008 60.5681 22.218C60.2085 21.8353 60.0083 21.3299 60.0083 20.8047C60.0083 20.2795 60.2085 19.7741 60.5681 19.3914C60.9277 19.0087 61.4197 18.7774 61.9439 18.7447C62.1994 18.7568 62.4499 18.8201 62.6805 18.9307C62.9111 19.0413 63.1172 19.1971 63.2865 19.3888C63.4559 19.5805 63.585 19.8043 63.6663 20.0468C63.7476 20.2893 63.7794 20.5457 63.7599 20.8007C63.7817 21.0566 63.7515 21.3143 63.6711 21.5582C63.5908 21.8022 63.4619 22.0273 63.2922 22.2202C63.1226 22.413 62.9157 22.5695 62.6839 22.6803C62.4522 22.791 62.2005 22.8538 61.9439 22.8647ZM81.4479 14.0007H77.8639V24.0007H79.3599V20.2087H81.4479C81.8742 20.2394 82.3023 20.1818 82.7055 20.0397C83.1086 19.8976 83.4782 19.6739 83.7911 19.3827C84.104 19.0915 84.3535 18.7389 84.5242 18.347C84.6948 17.9551 84.7829 17.5322 84.7829 17.1047C84.7829 16.6773 84.6948 16.2544 84.5242 15.8625C84.3535 15.4705 84.104 15.118 83.7911 14.8267C83.4782 14.5355 83.1086 14.3119 82.7055 14.1697C82.3023 14.0276 81.8742 13.9701 81.4479 14.0007ZM81.4479 18.8007H79.3599V15.3927H81.4799C81.9339 15.3927 82.3694 15.5731 82.6904 15.8942C83.0115 16.2152 83.1919 16.6507 83.1919 17.1047C83.1919 17.5588 83.0115 17.9942 82.6904 18.3153C82.3694 18.6363 81.9339 18.8167 81.4799 18.8167L81.4479 18.8007ZM90.6799 17.3687C90.1353 17.3362 89.593 17.4634 89.1197 17.7349C88.6464 18.0064 88.2628 18.4102 88.0159 18.8967L89.3359 19.4487C89.4693 19.2082 89.6694 19.0115 89.9122 18.8823C90.1549 18.7532 90.4299 18.697 90.7039 18.7207C90.8938 18.6985 91.0862 18.7144 91.2699 18.7674C91.4536 18.8204 91.625 18.9094 91.7739 19.0293C91.9228 19.1492 92.0464 19.2975 92.1374 19.4657C92.2284 19.6339 92.285 19.8185 92.3039 20.0087V20.1047C91.8228 19.8519 91.2874 19.72 90.7439 19.7207C89.3199 19.7207 87.8639 20.5207 87.8639 21.9767C87.878 22.2855 87.9539 22.5882 88.0871 22.8672C88.2202 23.1461 88.408 23.3955 88.6392 23.6006C88.8704 23.8057 89.1404 23.9623 89.4332 24.0613C89.726 24.1603 90.0357 24.1995 90.3439 24.1767C90.7206 24.1989 91.0964 24.1202 91.4326 23.9486C91.7687 23.777 92.0529 23.5189 92.2559 23.2007H92.3039V24.0007H93.7439V20.1527C93.7439 18.4007 92.4239 17.3847 90.7119 17.3847L90.6799 17.3687ZM90.4959 22.8487C90.0079 22.8487 89.3279 22.6007 89.3279 22.0007C89.3279 21.2007 90.1759 20.9287 90.9279 20.9287C91.4031 20.917 91.8728 21.033 92.2879 21.2647C92.2377 21.6992 92.0317 22.1007 91.708 22.3949C91.3844 22.6891 90.9651 22.856 90.5279 22.8647L90.4959 22.8487ZM98.9919 17.6007L97.2799 21.9367H97.2319L95.4559 17.6007H93.8559L96.5199 23.6647L94.9999 27.0327H96.5999L100.656 17.6007H98.9919ZM85.5519 24.0007H87.0399V14.0007H85.5519V24.0007Z" fill="white"/>
<path d="M8.3441 6.04056C8.08202 6.3673 7.95851 6.78377 8.0001 7.20056V24.8806C7.97574 25.2871 8.10735 25.6877 8.3681 26.0006L8.4321 26.0566L18.3121 16.1206V15.8806L8.4081 5.97656L8.3441 6.04056Z" fill="#5BC9F4"/>
<mask id="mask0_1835_6204" style="mask-type:luminance" maskUnits="userSpaceOnUse" x="18" y="12" width="9" height="8">
<path d="M21.5997 19.416L18.3037 16.12V15.88L21.5997 12.584L25.5997 14.848C26.7117 15.48 26.7117 16.52 25.5997 17.152L21.6877 19.376L21.6077 19.416" fill="white"/>
</mask>
<g mask="url(#mask0_1835_6204)">
<path d="M26.7195 12.5762H18.3115V19.4162H26.7195V12.5762Z" fill="url(#paint0_linear_1835_6204)"/>
</g>
<mask id="mask1_1835_6204" style="mask-type:luminance" maskUnits="userSpaceOnUse" x="8" y="16" width="14" height="11">
<path d="M21.6877 19.376L18.3117 16L8.34375 25.96C8.57132 26.1621 8.86277 26.2777 9.16702 26.2865C9.47127 26.2953 9.76891 26.1967 10.0077 26.008L21.6877 19.376Z" fill="white"/>
</mask>
<g mask="url(#mask1_1835_6204)">
<path d="M15.0165 9.32723L3.14844 21.1953L15.0165 33.0634L26.8846 21.1953L15.0165 9.32723Z" fill="url(#paint1_linear_1835_6204)"/>
</g>
<mask id="mask2_1835_6204" style="mask-type:luminance" maskUnits="userSpaceOnUse" x="8" y="5" width="14" height="11">
<path d="M21.6877 12.6239L10.0077 5.99192C9.76891 5.80324 9.47127 5.70465 9.16702 5.71343C8.86277 5.72221 8.57132 5.83779 8.34375 6.03992L18.3117 15.9999L21.6877 12.6239Z" fill="white"/>
</mask>
<g mask="url(#mask2_1835_6204)">
<path d="M15.0146 -1.07511L3.14648 10.793L15.0146 22.661L26.8826 10.793L15.0146 -1.07511Z" fill="url(#paint2_linear_1835_6204)"/>
</g>
<defs>
<linearGradient id="paint0_linear_1835_6204" x1="24.8955" y1="16.1202" x2="5.55152" y2="16.1202" gradientUnits="userSpaceOnUse">
<stop stop-color="#FEE000"/>
<stop offset="0.4" stop-color="#FCBE0E"/>
<stop offset="0.77" stop-color="#FAA418"/>
<stop offset="1" stop-color="#F99B1C"/>
</linearGradient>
<linearGradient id="paint1_linear_1835_6204" x1="19.182" y1="17.1357" x2="0.989556" y2="35.3282" gradientUnits="userSpaceOnUse">
<stop stop-color="#EF4547"/>
<stop offset="1" stop-color="#C6196D"/>
</linearGradient>
<linearGradient id="paint2_linear_1835_6204" x1="0.904673" y1="-3.48323" x2="15.7596" y2="11.3717" gradientUnits="userSpaceOnUse">
<stop stop-color="#279E6F"/>
<stop offset="0.04" stop-color="#2BA06F"/>
<stop offset="0.46" stop-color="#53B26C"/>
<stop offset="0.8" stop-color="#6BBD6A"/>
<stop offset="1" stop-color="#74C169"/>
</linearGradient>
</defs>
</svg>
