<svg width="111" height="42" viewBox="0 0 111 42" fill="none" xmlns="http://www.w3.org/2000/svg">
<path d="M78.4111 41.8607C78.4111 40.106 78.4222 38.3512 78.4111 36.5965C78.4111 36.3442 78.471 36.2433 78.7391 36.2623C78.9267 36.2765 79.0402 36.3033 79.0181 36.524C79.0143 36.6419 79.0196 36.76 79.0339 36.8771C80.1469 36.0021 81.0314 35.9848 81.7708 36.8062C82.5102 37.6276 82.4834 39.0134 81.733 39.7891C81.044 40.5033 80.1564 40.4418 79.1143 39.5857V41.8607H78.4111ZM81.6337 38.222C81.6258 37.544 81.1607 36.9323 80.5442 36.8125C80.0413 36.7132 79.4706 36.9039 79.2515 37.347C79.1163 37.6081 79.0457 37.8979 79.0457 38.192C79.0457 38.4861 79.1163 38.7759 79.2515 39.037C79.3842 39.297 79.6049 39.5014 79.8743 39.6138C80.1437 39.7261 80.4443 39.739 80.7224 39.6503C81.2442 39.4848 81.64 38.8636 81.6337 38.222Z" fill="#676A71"/>
<path d="M110.102 12.45C109.971 12.5398 109.982 12.6991 109.932 12.8268C109.714 13.3655 109.319 13.8137 108.812 14.097C108.304 14.3803 107.715 14.4817 107.143 14.3844C106.553 14.2834 106.018 13.9759 105.634 13.5169C105.25 13.058 105.041 12.4774 105.046 11.8789C105.051 11.2805 105.268 10.7031 105.659 10.25C106.05 9.79694 106.589 9.49763 107.18 9.40558C107.755 9.31726 108.343 9.42792 108.846 9.71924C109.349 10.0105 109.738 10.465 109.947 11.0074C109.99 11.1241 109.974 11.2691 110.105 11.3479L110.102 12.45ZM107.597 9.69725C107.16 9.69383 106.732 9.82 106.367 10.0598C106.002 10.2996 105.717 10.6423 105.547 11.0445C105.376 11.4466 105.329 11.8902 105.411 12.3191C105.494 12.748 105.701 13.143 106.008 13.4539C106.314 13.7649 106.706 13.978 107.134 14.0661C107.561 14.1543 108.006 14.1136 108.41 13.9493C108.815 13.7849 109.161 13.5043 109.406 13.1428C109.651 12.7813 109.784 12.3553 109.787 11.9186C109.787 11.3347 109.558 10.7739 109.148 10.358C108.738 9.94215 108.181 9.70472 107.597 9.69725Z" fill="#3FBAB6"/>
<path d="M19.726 40.612C11.9755 40.2746 6.10908 36.8282 2.34737 30C0.38926 26.4433 -0.276056 22.5933 0.100746 18.5667C0.918989 9.82142 7.52957 2.53763 16.1109 0.90903C24.492 -0.683313 33.0134 3.39687 37.0793 10.9298C38.6809 13.8477 39.5214 17.1221 39.523 20.4507C39.523 25.6203 37.8345 30.1798 34.3708 34.0361C31.1293 37.6433 27.0775 39.7559 22.2753 40.4259C21.9899 40.4669 21.703 40.4984 21.4161 40.5158C20.8516 40.5521 20.2888 40.5757 19.726 40.612ZM19.6992 37.9917C19.83 37.9917 19.9609 37.9917 20.0917 37.9917C20.314 37.9822 20.5363 37.968 20.7586 37.9523C24.9066 37.6779 28.517 36.1203 31.4793 33.2225C35.6494 29.1376 37.3742 24.1304 36.6568 18.3381C36.1066 13.9032 34.0586 10.2234 30.6532 7.33673C24.5944 2.19079 15.8034 1.87074 9.5334 6.73133C3.71584 11.2419 1.56696 17.2944 3.02372 24.4852C4.6066 32.3223 11.7107 37.9838 19.6992 37.9838V37.9917Z" fill="#DD3231"/>
<path d="M100.889 23.5423C98.8973 23.5423 96.9045 23.5549 94.9133 23.5313C94.5066 23.5313 94.4892 23.6889 94.5444 23.9916C95.175 27.3923 98.5883 28.5795 101.254 27.1274C101.882 26.8154 102.391 26.308 102.705 25.6817C102.807 25.4641 102.941 25.502 103.119 25.5524C104.113 25.8362 105.107 26.1168 106.105 26.3817C106.402 26.4621 106.438 26.5614 106.282 26.831C105.06 28.931 103.227 30.1954 100.878 30.6605C98.5284 31.1256 96.2029 30.9333 94.084 29.6563C91.8074 28.2862 90.5036 26.243 90.1221 23.6353C89.7185 20.8637 90.3412 18.3412 92.2394 16.2254C93.7041 14.5952 95.5818 13.7486 97.7575 13.5452C99.3766 13.3876 100.948 13.5547 102.441 14.2326C105.202 15.486 106.763 17.6554 107.271 20.6146C107.403 21.456 107.435 22.3102 107.365 23.1592C107.345 23.465 107.248 23.5517 106.944 23.5486C104.925 23.536 102.907 23.5423 100.889 23.5423ZM98.7207 20.7738H102.416C103.058 20.7738 103.055 20.7738 102.944 20.1432C102.577 18.0684 100.792 16.4729 98.407 16.6006C96.4473 16.7063 94.7068 18.3349 94.4561 20.3844C94.423 20.6635 94.4703 20.7786 94.7903 20.7738C96.1005 20.7628 97.4106 20.7738 98.7207 20.7738Z" fill="#3EBAB6"/>
<path d="M70.9422 30.8672C67.6629 30.8356 65.0536 29.5492 63.3525 26.6814C61.2904 23.2129 61.8626 18.3255 64.9843 15.617C66.3523 14.4146 68.072 13.6864 69.8874 13.5406C71.5617 13.3829 73.1872 13.5611 74.7228 14.2627C76.1907 14.9276 77.4084 16.0432 78.1991 17.4474C78.3568 17.7106 78.319 17.8068 78.0194 17.8951C76.8401 18.242 75.6687 18.6124 74.4958 18.9814C74.3381 19.0318 74.2214 19.0618 74.1063 18.8757C72.6417 16.5251 68.8926 16.4983 67.2766 19.1911C66.0784 21.1886 66.3023 24.1179 67.8316 25.8426C69.8449 28.1145 73.1194 27.3183 74.1852 25.4264C74.2766 25.2688 74.3712 25.2593 74.5352 25.3113C75.7444 25.6929 76.9552 26.0712 78.1708 26.4291C78.5176 26.53 78.3599 26.6893 78.2717 26.8532C77.1807 28.8634 75.4732 30.06 73.2818 30.6055C72.5171 30.7969 71.7302 30.8849 70.9422 30.8672Z" fill="#3FBAB6"/>
<path d="M85.2347 16.5065C85.2347 19.297 85.2347 22.0875 85.2347 24.8781C85.2233 25.1661 85.2365 25.4546 85.2742 25.7405C85.4712 26.8535 86.3778 27.3501 87.6075 27.0396C87.8847 26.9638 88.1574 26.8722 88.4242 26.7652C88.5818 26.7038 88.6591 26.7416 88.689 26.9119C88.8467 27.8578 89.0043 28.7927 89.1825 29.7324C89.2203 29.9436 89.0974 30.0019 88.9444 30.0682C87.9983 30.4543 86.9978 30.691 85.9789 30.7697C85.3285 30.8495 84.6696 30.8287 84.0255 30.7083C82.214 30.3346 81.1104 29.056 81.0111 27.2004C81.0016 27.0301 81.0016 26.8598 81.0016 26.6896C81.0016 20.336 80.9985 13.9824 80.9922 7.62875C80.9922 7.26929 81.0821 7.16839 81.4431 7.17628C82.5561 7.2015 83.6708 7.19835 84.7838 7.17628C85.1338 7.16839 85.2458 7.25195 85.2426 7.62245C85.2269 10.5848 85.2347 13.5456 85.2347 16.5065Z" fill="#3FBAB6"/>
<path d="M55.6782 17.1694C56.1224 16.4868 56.6371 15.8527 57.2137 15.2775C58.1061 14.4387 59.0962 13.7845 60.3369 13.5795C61.5777 13.3745 61.6502 13.4218 61.6502 14.6689C61.6502 15.495 61.6424 16.3196 61.6502 17.1457C61.6502 17.3822 61.6108 17.4831 61.3349 17.4989C60.1746 17.5619 59.052 17.7905 58.0115 18.336C57.6591 18.5112 57.3328 18.7346 57.0419 18.9998C56.4113 19.6099 55.9667 20.261 55.9856 21.248C56.0439 24.2072 56.0014 27.168 56.014 30.1288C56.014 30.4441 55.9446 30.5545 55.6072 30.5482C54.4547 30.5277 53.3023 30.534 52.1498 30.5482C51.877 30.5482 51.7588 30.5072 51.7588 30.1903C51.7704 24.8299 51.7704 19.4696 51.7588 14.1092C51.7588 13.8664 51.8077 13.764 52.0741 13.7671C53.1619 13.7829 54.2493 13.7829 55.336 13.7671C55.6324 13.7671 55.675 13.8775 55.6719 14.1329C55.6719 15.1513 55.6782 16.1604 55.6782 17.1694Z" fill="#3FBAB6"/>
<path d="M44.2184 22.2068C44.2184 19.5739 44.2263 16.9395 44.209 14.305C44.209 13.9156 44.3209 13.832 44.6914 13.832C45.8313 13.8557 46.9712 13.8494 48.111 13.832C48.3885 13.832 48.4642 13.9109 48.4626 14.1852C48.4563 19.5455 48.4563 24.9059 48.4626 30.2663C48.4626 30.5516 48.3696 30.6131 48.1031 30.61C46.9365 30.5973 46.0883 30.4018 44.9232 30.4192C44.6157 30.4192 44.2074 30.5374 44.209 30.2221C44.2263 27.553 44.2184 24.8807 44.2184 22.2068Z" fill="#3FBAB6"/>
<path d="M46.3638 11.5006C45.7615 11.5006 45.1593 11.4912 44.5586 11.5006C44.3142 11.5006 44.2118 11.4517 44.2149 11.1853C44.2275 9.9808 44.2275 8.77629 44.2149 7.57179C44.2149 7.31165 44.2969 7.23913 44.5523 7.24229C45.7431 7.2549 46.9345 7.2549 48.1264 7.24229C48.3708 7.24229 48.4701 7.29589 48.4669 7.56549C48.4533 8.76999 48.4533 9.97397 48.4669 11.1774C48.4669 11.4407 48.3834 11.5132 48.1311 11.5053C47.5431 11.4896 46.9534 11.5006 46.3638 11.5006Z" fill="#3FBAB6"/>
<path d="M53.5643 39.0181V35.7372C53.5787 35.5799 53.5787 35.4216 53.5643 35.2642C53.4902 34.8464 53.7299 34.8275 54.0373 34.8464C54.206 34.8575 54.2628 34.9126 54.2628 35.0798C54.2628 36.7173 54.2628 38.3548 54.2628 39.9924C54.2628 40.0822 54.2754 40.2036 54.1461 40.1973C53.9238 40.1895 53.6873 40.2904 53.4997 40.0397C52.9369 39.3003 52.3535 38.5766 51.7797 37.8467L50.4932 36.2102C50.3544 36.289 50.4143 36.4057 50.4143 36.4971C50.4143 37.6244 50.4001 38.7516 50.4143 39.8773C50.4143 40.1816 50.2929 40.2084 50.0454 40.2099C49.7979 40.2115 49.7065 40.1611 49.708 39.8946C49.7222 38.3622 49.708 36.8298 49.7206 35.2973C49.7206 35.1523 49.5929 34.9158 49.8389 34.8653C49.956 34.8258 50.0828 34.8248 50.2005 34.8626C50.3183 34.9003 50.4208 34.9748 50.4932 35.075C51.1585 35.9674 51.8537 36.8361 52.5427 37.7126C52.8549 38.121 53.1749 38.5246 53.5643 39.0181Z" fill="#676A71"/>
<path d="M72.0481 37.0297C73.0304 35.841 74.3484 36.0002 74.6984 37.0297C74.8324 37.0297 74.8466 36.9051 74.9065 36.8342C75.0436 36.6582 75.2148 36.5116 75.4098 36.4033C75.6049 36.2949 75.8197 36.227 76.0416 36.2036C76.7101 36.1437 77.1452 36.4542 77.3029 37.1054C77.3494 37.2965 77.3747 37.4921 77.3786 37.6887C77.3864 38.4218 77.3707 39.1565 77.388 39.8959C77.388 40.1497 77.3234 40.227 77.0632 40.227C76.8031 40.227 76.7038 40.1592 76.7101 39.8786C76.729 39.2117 76.7337 38.5416 76.7101 37.8747C76.6786 37.1054 76.4231 36.8027 75.8918 36.8169C75.5966 36.8431 75.3205 36.9742 75.1137 37.1865C74.9069 37.3988 74.783 37.6782 74.7646 37.9741C74.7488 38.6047 74.7425 39.2353 74.7646 39.866C74.7772 40.1734 74.67 40.227 74.3862 40.2349C74.0599 40.2459 74.0709 40.0772 74.0709 39.8518C74.0783 39.2106 74.0783 38.569 74.0709 37.9268C74.063 37.1842 73.8092 36.8232 73.2952 36.8232C72.9859 36.8356 72.6925 36.9639 72.4734 37.1827C72.2543 37.4015 72.1256 37.6947 72.1128 38.004C72.1018 38.6457 72.097 39.2889 72.1128 39.929C72.1207 40.1844 72.0308 40.2443 71.7975 40.227C71.6067 40.2097 71.4128 40.2774 71.4191 39.9464C71.438 38.8207 71.4349 37.6934 71.4191 36.5662C71.4191 36.295 71.5436 36.284 71.7533 36.2777C71.963 36.2714 72.056 36.3549 72.0324 36.5709C72.0371 36.6828 72.0481 36.8121 72.0481 37.0297Z" fill="#676A71"/>
<path d="M90.9097 36.973C92.1394 35.8931 93.0396 35.9278 93.563 37.0598C93.7585 36.88 93.8973 36.6546 94.1085 36.5001C95.0103 35.8379 96.0304 36.221 96.1943 37.312C96.3299 38.2075 96.2274 39.114 96.2479 40.0174C96.2558 40.3201 96.0162 40.1861 95.8743 40.205C95.7324 40.2239 95.559 40.2318 95.5684 39.9827C95.5811 39.3679 95.5684 38.7514 95.5684 38.1366C95.5741 37.9014 95.5551 37.6662 95.5117 37.435C95.3792 36.8595 94.8968 36.6325 94.3655 36.9005C94.1351 36.9994 93.9389 37.164 93.8015 37.3737C93.6641 37.5835 93.5916 37.8291 93.593 38.0798C93.593 38.6947 93.5788 39.3095 93.593 39.9244C93.593 40.194 93.4842 40.2208 93.2682 40.2145C93.0522 40.2082 92.9182 40.2145 92.9292 39.937C92.9513 39.3616 92.9403 38.7845 92.9292 38.2028C92.929 37.9918 92.9142 37.7811 92.8851 37.5721C92.7732 36.8138 92.1693 36.5442 91.5387 36.9841C91.3547 37.0994 91.2042 37.261 91.1021 37.4527C91 37.6445 90.95 37.8596 90.957 38.0766C90.9696 38.6915 90.9459 39.3079 90.9664 39.9212C90.9759 40.205 90.8308 40.2082 90.6274 40.2003C90.4241 40.1924 90.2727 40.235 90.2775 39.937C90.2911 38.7987 90.2911 37.6599 90.2775 36.5206C90.2775 36.2667 90.3988 36.2541 90.5928 36.2541C90.7867 36.2541 90.9333 36.2541 90.9081 36.5174C90.8994 36.6692 90.8999 36.8213 90.9097 36.973Z" fill="#676A71"/>
<path d="M64.0266 34.8105C64.8764 34.8232 65.5149 35.1148 65.9721 35.7691C66.0683 35.9078 66.1014 36.0371 65.9075 36.1065C65.764 36.1569 65.641 36.4423 65.4581 36.1696C65.0025 35.4885 64.3545 35.3198 63.6025 35.4979C62.8931 35.665 62.4989 36.1948 62.3286 36.8632C62.0921 37.7666 62.2735 38.5833 62.9939 39.2281C63.1699 39.3861 63.3776 39.5048 63.603 39.5762C63.8285 39.6476 64.0666 39.6701 64.3014 39.6422C64.5363 39.6143 64.7625 39.5366 64.9649 39.4144C65.1674 39.2921 65.3414 39.1281 65.4755 38.9333C65.6946 38.6054 65.8334 38.8434 66.0052 38.9144C66.2843 39.031 66.103 39.1903 66.021 39.3164C65.2153 40.5446 63.2446 40.5777 62.2372 39.3795C61.0106 37.9322 61.5041 35.6398 63.1831 34.9903C63.4533 34.8872 63.7379 34.8266 64.0266 34.8105Z" fill="#676A71"/>
<path d="M104.773 38.4743C104.328 38.4743 103.882 38.4901 103.439 38.4743C103.154 38.4617 103.135 38.5894 103.203 38.8022C103.266 39.0297 103.388 39.2363 103.557 39.4006C103.727 39.565 103.937 39.6811 104.166 39.737C104.396 39.793 104.636 39.7866 104.862 39.7188C105.088 39.6509 105.292 39.5239 105.452 39.3509C105.525 39.2752 105.542 39.1096 105.708 39.1569C105.845 39.1964 106.039 39.2027 106.102 39.2957C106.187 39.4202 106.022 39.5464 105.935 39.6473C105.462 40.2117 104.53 40.4497 103.775 40.1707C102.942 39.8633 102.514 39.2342 102.44 38.3576C102.419 38.0934 102.451 37.8277 102.534 37.5759C102.617 37.3241 102.748 37.0911 102.921 36.8903C103.094 36.6896 103.305 36.5251 103.542 36.4062C103.779 36.2873 104.037 36.2165 104.302 36.1977C104.566 36.1783 104.832 36.2122 105.083 36.2974C105.334 36.3827 105.565 36.5176 105.763 36.6941C105.961 36.8706 106.122 37.0851 106.235 37.3248C106.349 37.5645 106.413 37.8246 106.424 38.0896C106.438 38.4049 106.334 38.4948 106.029 38.4759C105.612 38.4554 105.192 38.4743 104.773 38.4743ZM104.447 38.0013C104.8 38.0013 105.154 37.9856 105.506 38.0013C105.774 38.0171 105.821 37.9178 105.752 37.686C105.67 37.4014 105.499 37.1507 105.263 36.971C105.028 36.7913 104.741 36.6921 104.445 36.688C104.142 36.6957 103.851 36.8046 103.618 36.9972C103.384 37.1898 103.222 37.4551 103.157 37.7506C103.111 37.9477 103.149 38.006 103.349 38.0013C103.715 37.9982 104.081 38.006 104.443 38.006L104.447 38.0013Z" fill="#676A71"/>
<path d="M59.0708 38.2375C59.0708 39.3994 58.2257 40.287 57.1001 40.287C56.6917 40.3028 56.288 40.196 55.9407 39.9806C55.5935 39.7652 55.3185 39.4508 55.1513 39.078C54.984 38.7051 54.932 38.2908 55.0019 37.8882C55.0719 37.4855 55.2606 37.113 55.5438 36.8184C55.8271 36.5239 56.1919 36.3207 56.5915 36.235C56.9911 36.1493 57.4071 36.185 57.7863 36.3376C58.1654 36.4901 58.4902 36.7525 58.7191 37.0911C58.948 37.4296 59.0705 37.8288 59.0708 38.2375ZM58.3787 38.2974C58.4023 37.4539 57.8316 36.7839 57.0843 36.7728C56.3922 36.7728 55.7947 37.4177 55.7694 38.2123C55.7442 39.0069 56.326 39.6942 57.0528 39.7116C57.7796 39.7289 58.3566 39.0967 58.3787 38.2974Z" fill="#676A71"/>
<path d="M89.4985 38.261C89.5049 38.5264 89.4578 38.7903 89.36 39.0371C89.2622 39.2839 89.1158 39.5086 88.9294 39.6976C88.743 39.8866 88.5205 40.0362 88.2751 40.1374C88.0297 40.2387 87.7664 40.2895 87.501 40.2869C86.9828 40.2479 86.4988 40.0134 86.1469 39.6311C85.795 39.2487 85.6015 38.747 85.6055 38.2273C85.6095 37.7077 85.8108 37.209 86.1685 36.8321C86.5263 36.4552 87.0138 36.2283 87.5325 36.1973C88.6393 36.1973 89.5033 37.1101 89.4985 38.261ZM88.808 38.2421C88.808 37.4223 88.2262 36.7696 87.4947 36.7727C86.7632 36.7759 86.1924 37.4585 86.1972 38.2657C86.2019 39.0729 86.7758 39.702 87.4947 39.7115C88.2136 39.7209 88.808 39.0556 88.808 38.2468V38.2421Z" fill="#676A71"/>
<path d="M70.6386 38.247C70.6386 39.4105 69.7936 40.2792 68.6584 40.2823C67.5233 40.2855 66.6767 39.4089 66.6672 38.2501C66.6578 37.9819 66.703 37.7145 66.7999 37.4642C66.8968 37.214 67.0436 36.986 67.2312 36.7941C67.4189 36.6021 67.6435 36.4503 67.8915 36.3478C68.1396 36.2452 68.4058 36.1941 68.6742 36.1974C69.7936 36.2053 70.6386 37.0882 70.6386 38.247ZM67.3467 38.2612C67.3578 39.0605 67.9348 39.7037 68.6458 39.7085C69.3569 39.7132 69.9875 39.0179 69.9717 38.1965C69.956 37.4193 69.3411 36.7555 68.6427 36.7681C67.9443 36.7808 67.3357 37.4587 67.3467 38.2659V38.2612Z" fill="#676A71"/>
<path d="M100.361 40.287C99.8341 40.2938 99.319 40.1277 98.8951 39.814C98.6602 39.639 98.78 39.4813 98.8762 39.3158C99.0165 39.0714 99.1159 39.3032 99.201 39.3647C99.4103 39.5235 99.6507 39.6366 99.9065 39.6966C100.162 39.7567 100.428 39.7623 100.686 39.7131C100.968 39.6611 101.21 39.5365 101.243 39.1976C101.279 38.8349 101.027 38.7246 100.754 38.641C100.319 38.5054 99.8663 38.4187 99.4596 38.1996C99.314 38.1252 99.1891 38.0158 99.0962 37.8813C99.0033 37.7469 98.9451 37.5914 98.927 37.429C98.9089 37.2665 98.9314 37.1021 98.9924 36.9504C99.0534 36.7987 99.1511 36.6646 99.2767 36.5599C99.8505 36.0554 101.118 36.0791 101.697 36.5852C101.876 36.7428 101.776 36.8421 101.697 36.9793C101.602 37.137 101.517 37.1606 101.364 37.0376C101.183 36.8958 100.972 36.797 100.747 36.7486C100.522 36.7003 100.288 36.7037 100.065 36.7586C99.8143 36.8075 99.592 36.9162 99.562 37.2316C99.5321 37.5469 99.7197 37.6856 99.9688 37.7739C100.35 37.9063 100.738 38.0262 101.12 38.1602C101.684 38.3588 101.908 38.6331 101.908 39.1061C101.909 39.3505 101.829 39.5884 101.681 39.783C101.533 39.9776 101.325 40.1182 101.09 40.1829C100.856 40.2625 100.608 40.2978 100.361 40.287Z" fill="#676A71"/>
<path d="M83.7535 37.1135C84.0688 36.661 84.3841 36.3567 84.8413 36.2653C84.98 36.2369 85.1866 36.1265 85.2102 36.3788C85.2276 36.5648 85.3379 36.8124 84.9722 36.8849C84.0877 37.0567 83.8055 37.4225 83.8055 38.3038C83.8055 38.8524 83.7929 39.4074 83.8055 39.9513C83.815 40.2477 83.6368 40.2099 83.4523 40.213C83.2679 40.2162 83.1087 40.2335 83.1134 39.9419C83.1307 38.8051 83.1291 37.6669 83.1134 36.5286C83.1134 36.2716 83.2348 36.2621 83.4287 36.2684C83.6226 36.2747 83.7803 36.2416 83.7535 36.516C83.7393 36.6705 83.7535 36.8423 83.7535 37.1135Z" fill="#676A71"/>
<path d="M97.9354 38.2836C97.9354 38.8338 97.9212 39.3872 97.9354 39.9311C97.9464 40.2055 97.8109 40.2197 97.6043 40.2133C97.3978 40.207 97.2591 40.2323 97.2638 39.9406C97.2811 38.8055 97.278 37.6688 97.2638 36.532C97.2638 36.2798 97.3773 36.2546 97.5791 36.2688C97.7809 36.2829 97.9496 36.2136 97.9417 36.521C97.9228 37.1075 97.9354 37.6971 97.9354 38.2836Z" fill="#676A71"/>
<path d="M97.9412 35.135C97.9853 35.3998 97.9412 35.5512 97.588 35.5528C97.1734 35.5528 97.2948 35.2942 97.2727 35.0798C97.2506 34.8323 97.2727 34.6841 97.6069 34.6778C97.9979 34.6746 97.9585 34.8843 97.9412 35.135Z" fill="#676A71"/>
<path d="M106.709 11.9083V10.7322C106.709 10.6124 106.709 10.5052 106.867 10.4768C107.249 10.3863 107.649 10.3923 108.029 10.4942C108.659 10.6991 108.847 11.3297 108.426 11.8279C108.323 11.9478 108.282 12.0092 108.386 12.1433C108.601 12.4223 108.647 12.7644 108.702 13.1002C108.719 13.2043 108.818 13.3493 108.617 13.3714C108.47 13.3872 108.29 13.4313 108.243 13.2027C108.205 13.023 108.169 12.8448 108.117 12.6698C108.069 12.4915 107.961 12.3348 107.813 12.2252C107.735 12.1745 107.648 12.1421 107.556 12.1306C107.465 12.1191 107.372 12.1289 107.284 12.159C107.095 12.211 107.188 12.4002 107.179 12.5295C107.167 12.7254 107.167 12.9217 107.179 13.1176C107.179 13.291 107.141 13.3824 106.941 13.3824C106.74 13.3824 106.687 13.2942 106.704 13.1207C106.705 13.1076 106.705 13.0944 106.704 13.0813L106.709 11.9083ZM107.182 11.3502C107.141 11.5788 107.147 11.7901 107.516 11.746C107.822 11.7081 108.147 11.7176 108.178 11.3045C108.204 11.0176 107.964 10.893 107.527 10.8568C107.124 10.8221 107.171 11.0696 107.188 11.3502H107.182Z" fill="#3FBAB6"/>
<path d="M31.2474 17.3192C30.3961 17.3192 29.5432 17.2972 28.6918 17.3287C28.3197 17.3429 28.1574 17.212 28.0107 16.8794C26.7715 14.0825 24.6857 12.2395 21.7044 11.508C16.672 10.2735 11.6143 13.4945 10.5486 18.5679C9.44497 23.8447 12.7558 28.8598 18.0783 29.7789C21.2078 30.3181 23.9227 29.3359 26.163 27.0814C26.965 26.2671 27.5988 25.3028 28.0281 24.2436C28.054 24.1582 28.11 24.0852 28.1856 24.0379C28.2613 23.9907 28.3515 23.9724 28.4396 23.9866C30.2873 23.9929 32.1351 23.9929 33.9828 23.9866C34.2477 23.9866 34.3186 24.0417 34.254 24.3224C32.9643 29.9492 28.0233 34.6679 22.3492 35.6485C17.5817 36.4731 13.3186 35.3427 9.66096 32.18C6.77898 29.6843 5.06839 26.5044 4.56546 22.7095C3.96321 18.1722 5.12199 14.1014 8.07019 10.603C10.5927 7.60752 13.8357 5.82126 17.7441 5.37193C22.6062 4.81225 26.7889 6.31788 30.2605 9.7422C32.2927 11.746 33.5902 14.1897 34.2855 16.9566C34.3549 17.2357 34.3312 17.3429 33.9986 17.3334C33.0826 17.3035 32.165 17.3192 31.2474 17.3192Z" fill="#37BCB7"/>
<path d="M26.2311 17.3192C25.1889 17.3192 24.2083 17.3192 23.2261 17.3192C23.0243 17.3192 22.925 17.1741 22.802 17.0685C20.9432 15.473 18.3765 15.5203 16.595 17.1883C14.8135 18.8563 14.6732 21.7683 16.3018 23.6602C17.0824 24.5605 18.1836 25.1204 19.3709 25.2208C20.5582 25.3213 21.7378 24.9542 22.6585 24.1978C22.8243 24.0512 23.0395 23.9729 23.2608 23.9786C24.0853 23.9928 24.9115 23.9786 25.736 23.9865C25.859 23.9865 26.0229 23.9172 26.0955 24.0464C26.168 24.1757 26.0245 24.2577 25.9662 24.3617C24.4874 26.8843 21.536 28.3032 18.7297 27.846C15.6806 27.3525 13.27 25.0696 12.6756 22.1151C11.8479 18.0034 14.4099 14.1566 18.509 13.3557C21.4714 12.7771 24.7506 14.3694 26.1112 17.048C26.1475 17.1111 26.1727 17.1836 26.2311 17.3192Z" fill="#DD3231"/>
</svg>
